{"title":"Echo Planet  (2012) CAMRip (Russian)","uid":8924168,"size":1466912768,"categoryP":"video","categoryS":"movies","magnet":"?xt=urn:btih:6454391eaece274e8f226da37d0b7e6f6e04b338&amp;dn=Echo+Planet++%282012%29+CAMRip+%28Russian%29&amp;tr=udp%3A%2F%2Ftracker.openbittorrent.com%3A80&amp;tr=udp%3A%2F%2Fopen.demonii.com%3A1337&amp;tr=udp%3A%2F%2Ftracker.coppersurfer.tk%3A6969&amp;tr=udp%3A%2F%2Fexodus.desync.com%3A6969","seeders":1,"leechers":0,"uploader":"yfjfrj","files":-1,"time":1379326290,"description":"General\nComplete name                            : D:Spasti.Zemlu.2012.D.CAMRip.1400MB.avi\nFormat                                   : AVI\nFormat/Info                              : Audio Video Interleave\nFile size                                : 1.37 GiB\nDuration                                 : 1h 15mn\nOverall bit rate                         : 2 585 Kbps\nMovie name                               : Spasti.Zemlu.2012.D.CAMRip.1400MB.INTERCINEMA\nDirector                                 : INTERCINEMA\nWriting application                      : VirtualDubMod 1.5.10.3 | www.virtualdub-fr.org || (build 2550/release)\nCopyright                                : http://intercinema.net\n\nVideo\nID                                       : 0\nFormat                                   : MPEG-4 Visual\nFormat profile                           : Advanced Simple@L5\nFormat settings, BVOP                    : 2\nFormat settings, QPel                    : No\nFormat settings, GMC                     : No warppoints\nFormat settings, Matrix                  : Default (MPEG)\nCodec ID                                 : XVID\nCodec ID/Hint                            : XviD\nDuration                                 : 1h 15mn\nBit rate                                 : 2 256 Kbps\nWidth                                    : 720 pixels\nHeight                                   : 272 pixels\nDisplay aspect ratio                     : 2.647\nFrame rate                               : 25.000 fps\nColor space                              : YUV\nChroma subsampling                       : 4:2:0\nBit depth                                : 8 bits\nScan type                                : Progressive\nCompression mode                         : Lossy\nBits/(Pixel*Frame)                       : 0.461\nStream size                              : 1.19 GiB (87%)\nWriting library                          : XviD 1.2.1 (UTC 2008-12-04)\n\nAudio\nID                                       : 1\nFormat                                   : AC-3\nFormat/Info                              : Audio Coding 3\nMode extension                           : CM (complete main)\nFormat settings, Endianness              : Big\nCodec ID                                 : 2000\nDuration                                 : 1h 15mn\nBit rate mode                            : Constant\nBit rate                                 : 320 Kbps\nChannel(s)                               : 2 channels\nChannel positions                        : Front: L R\nSampling rate                            : 48.0 KHz\nBit depth                                : 16 bits\nCompression mode                         : Lossy\nStream size                              : 173 MiB (12%)\nAlignment                                : Split accross interleaves\nInterleave, duration                     : 40 ms (1.00 video frame)\nInterleave, preload duration             : 500 ms\n","torrent":{"xt":"urn:btih:6454391eaece274e8f226da37d0b7e6f6e04b338","amp;dn":"Echo+Planet++%282012%29+CAMRip+%28Russian%29","amp;tr":["udp%3A%2F%2Ftracker.openbittorrent.com%3A80","udp%3A%2F%2Fopen.demonii.com%3A1337","udp%3A%2F%2Ftracker.coppersurfer.tk%3A6969","udp%3A%2F%2Fexodus.desync.com%3A6969"],"infoHash":"6454391eaece274e8f226da37d0b7e6f6e04b338","infoHashBuffer":{"type":"Buffer","data":[100,84,57,30,174,206,39,78,143,34,109,163,125,11,126,111,110,4,179,56]},"announce":[],"urlList":[]}}